HIERARCHY
ROOT hip
{
	OFFSET 0.000000 0.000000 0.000000 
	CHANNELS 6 Xposition Yposition Zposition Xrotation Zrotation Yrotation
	JOINT abdomen
	{
		OFFSET 0.000000 3.402643 0.000000 
		CHANNELS 3 Xrotation Zrotation Yrotation
		JOINT chest
		{
			OFFSET 0.000000 8.438565 -0.680529 
			CHANNELS 3 Xrotation Zrotation Yrotation
			JOINT neck
			{
				OFFSET 0.000000 10.207942 -0.272212 
				CHANNELS 3 Xrotation Zrotation Yrotation
				JOINT head
				{
					OFFSET 0.000000 3.130431 0.000000 
					CHANNELS 3 Xrotation Zrotation Yrotation
					End Site
					{
						OFFSET 0.000000 3.130435 0.000000 
					}
				}
			}
			JOINT lCollar
			{
				OFFSET 3.470700 6.669187 -0.816635 
				CHANNELS 3 Yrotation Zrotation Xrotation
				JOINT lShldr
				{
					OFFSET 3.198488 0.000000 0.000000 
					CHANNELS 3 Zrotation Yrotation Xrotation
					JOINT lForeArm
					{
						OFFSET 10.139888 0.000000 0.000000 
						CHANNELS 3 Yrotation Zrotation Xrotation
						JOINT lHand
						{
							OFFSET 8.370511 0.000000 0.000000 
							CHANNELS 3 Zrotation Yrotation Xrotation
							End Site
							{
								OFFSET 4.083176 0.000000 0.000000 
							}
						}
					}
				}
			}
			JOINT rCollar
			{
				OFFSET -3.470700 6.669187 -0.816635 
				CHANNELS 3 Yrotation Zrotation Xrotation
				JOINT rShldr
				{
					OFFSET -3.198488 0.000000 0.000000 
					CHANNELS 3 Zrotation Yrotation Xrotation
					JOINT rForeArm
					{
						OFFSET -10.139888 0.000000 0.000000 
						CHANNELS 3 Yrotation Zrotation Xrotation
						JOINT rHand
						{
							OFFSET -8.370511 0.000000 0.000000 
							CHANNELS 3 Zrotation Yrotation Xrotation
							End Site
							{
								OFFSET -4.083176 0.000000 0.000000 
							}
						}
					}
				}
			}
		}
	}
	JOINT lThigh
	{
		OFFSET 5.308129 -1.633274 1.361059 
		CHANNELS 3 Xrotation Zrotation Yrotation
		JOINT lShin
		{
			OFFSET -2.041588 -20.007561 0.000000 
			CHANNELS 3 Xrotation Zrotation Yrotation
			JOINT lFoot
			{
				OFFSET 0.000000 -19.190928 -1.224953 
				CHANNELS 3 Xrotation Yrotation Zrotation
				End Site
				{
					OFFSET 0.000000 -2.449906 4.627600 
				}
			}
		}
	}
	JOINT rThigh
	{
		OFFSET -5.308129 -1.633274 1.361059 
		CHANNELS 3 Xrotation Zrotation Yrotation
		JOINT rShin
		{
			OFFSET 2.041588 -20.007561 0.000000 
			CHANNELS 3 Xrotation Zrotation Yrotation
			JOINT rFoot
			{
				OFFSET 0.000000 -19.190928 -1.224953 
				CHANNELS 3 Xrotation Yrotation Zrotation
				End Site
				{
					OFFSET 0.000000 -2.449906 4.627600 
				}
			}
		}
	}
}
MOTION
Frames: 15
Frame Time: 0.011111
-2.752944 52.908607 18.764301 172.226196 177.963287 3.220979 23.949017 5.785543 -3.355828 -17.929171 3.922061 -1.682734 -10.699741 -7.602033 -7.982269 26.368902 14.490312 -13.122431 -0.892466 -0.957000 1.218467 -75.170708 -27.517693 7.868184 -45.043243 6.396493 6.217587 8.524705 12.647240 -59.505264 -4.058817 0.661413 2.306497 76.909546 21.048555 -23.335968 55.971161 -8.823372 10.647099 -8.534408 -12.637552 89.056503 -19.204895 11.578503 9.768138 61.489727 -2.573586 -8.266845 -13.301230 0.862616 -2.874520 -10.972039 0.419001 5.519481 28.823248 5.398510 4.697418 -17.878271 1.668473 3.383898 
-2.817065 52.852955 18.280979 172.115479 177.969131 2.775171 23.961260 5.684259 -3.066425 -18.026993 3.732054 -1.604981 -10.505479 -7.608775 -7.868497 26.062382 14.477552 -12.916341 -0.892466 -0.957000 1.218467 -75.202866 -27.000830 6.734659 -44.662525 6.278500 6.071278 8.524705 12.647240 -59.974014 -4.058817 0.661413 2.306497 77.299637 20.336664 -24.061289 56.003815 -8.830658 10.657092 -8.534408 -12.637552 89.388527 -20.427616 11.736629 9.404555 61.040363 -2.632069 -8.225704 -14.455353 0.859766 -2.801734 -10.503697 0.517065 5.260349 29.024059 5.384431 4.722180 -18.802748 2.046521 3.484919 
-2.878463 52.815758 17.798262 171.974167 177.810822 2.167115 23.986122 5.615712 -2.549095 -18.173637 3.481197 -1.452426 -10.119298 -7.326490 -7.851484 25.442299 14.297386 -12.899719 -0.892466 -0.957000 1.218467 -75.132141 -26.363182 5.673096 -44.518913 6.236373 6.019022 8.524705 12.647240 -59.729874 -4.058817 0.661413 2.306497 77.821678 19.687017 -24.761536 56.067532 -8.840933 10.690102 -8.534408 -12.637552 89.456894 -21.694139 12.115123 9.163162 60.415024 -2.690653 -8.170174 -15.336261 0.952318 -2.742280 -10.089704 0.828289 5.264486 29.253834 5.378921 4.731163 -19.256773 2.000044 3.449845 
-2.936232 52.759796 17.339134 171.932739 177.846085 1.697030 24.276360 5.488875 -2.416896 -18.251860 3.449353 -1.418540 -10.213084 -7.181745 -7.677177 24.898169 13.900513 -12.738313 -0.892466 -0.957000 1.218467 -75.260811 -26.103718 4.125382 -44.273178 6.166262 5.932323 8.524705 12.647240 -59.417374 -4.058817 0.661413 2.306497 77.989464 19.288198 -25.020821 56.120472 -8.848305 10.711806 -8.534408 -12.637552 89.730324 -22.730837 12.292382 8.931912 59.563915 -2.796794 -8.112409 -16.261530 0.697649 -2.739954 -9.610311 0.955061 5.417665 29.473034 5.364921 4.796446 -19.261269 1.548577 3.274642 
-2.993396 52.729855 16.881823 171.793503 177.750076 1.234650 24.503794 5.652573 -2.401643 -18.251858 3.410578 -1.438641 -10.594885 -7.287981 -7.339871 24.586155 13.643014 -12.328448 -0.892466 -0.957000 1.218467 -75.521118 -25.975794 2.471021 -44.047028 6.092601 5.849034 8.524705 12.647240 -59.182995 -4.058817 0.661413 2.306497 77.897217 19.038242 -25.098850 55.971161 -8.823372 10.647099 -8.534408 -12.637552 89.935410 -23.870140 12.592663 8.527971 58.537064 -2.895658 -8.025425 -17.036528 0.424207 -2.762926 -9.244919 1.200808 5.559899 29.614115 5.354297 4.796290 -19.543520 1.417289 3.227152 
-3.042393 52.757683 16.412109 171.556290 177.564087 0.714872 24.583151 5.860234 -2.283061 -18.261606 3.283392 -1.441060 -10.981818 -7.185921 -7.069317 24.445559 13.248374 -11.994882 -0.892466 -0.957000 1.218467 -75.706810 -25.757366 1.089633 -43.863258 6.039973 5.779155 8.524705 12.647240 -58.909554 -4.058817 0.661413 2.306497 77.916840 18.841793 -25.442614 55.728146 -8.790134 10.546085 -8.534408 -12.637552 89.915878 -25.096750 13.026759 7.968870 57.304741 -3.041994 -7.896811 -17.776947 0.334045 -2.752012 -8.921813 1.522523 5.698358 29.684811 5.344872 4.809817 -20.247744 1.479069 3.203616 
-3.090181 52.770382 15.940582 171.350555 177.657150 0.207028 24.708424 5.708331 -2.312047 -18.310469 3.213547 -1.425259 -11.432063 -6.879704 -6.843154 24.385508 12.586345 -11.740603 -0.892466 -0.957000 1.218467 -75.834122 -25.527168 -0.028456 -43.555740 5.939867 5.662882 8.524705 12.647240 -58.665417 -4.058817 0.661413 2.306497 78.007187 18.671413 -25.754210 55.600697 -8.768477 10.482043 -8.534408 -12.637552 90.013535 -26.085592 13.080477 7.520836 55.953590 -3.178143 -7.779211 -18.627941 0.305680 -2.696240 -8.558768 1.521670 5.827877 29.643879 5.354412 4.798939 -20.700815 1.476259 3.202452 
-3.150975 52.738625 15.492948 171.155380 177.770935 -0.346501 24.870340 5.525539 -2.368238 -18.486349 3.098798 -1.153582 -11.406249 -6.622772 -6.669127 23.776751 12.170158 -11.537564 -0.892466 -0.957000 1.218467 -75.861031 -25.117640 -0.469242 -43.381683 5.885153 5.605195 8.524705 12.647240 -58.079483 -4.058817 0.661413 2.306497 78.105919 18.471306 -26.003675 55.379349 -8.738595 10.391668 -8.534408 -12.637552 89.759628 -27.034214 13.091293 7.074201 54.454079 -3.344379 -7.651950 -19.269489 0.473477 -2.602260 -8.140711 1.434492 6.051343 29.435408 5.354107 4.780538 -20.954634 1.415209 3.160801 
-3.217817 52.742859 15.051970 171.028030 177.667557 -0.881948 25.115578 5.510314 -2.030933 -18.535130 2.940639 -1.059560 -11.441239 -6.464194 -6.497043 23.097889 11.826348 -11.352071 -0.892466 -0.957000 1.218467 -75.929398 -24.650885 -0.372817 -43.658455 5.975770 5.703396 8.524705 12.647240 -56.800182 -4.058817 0.661413 2.306497 78.150482 18.567015 -26.353613 54.966610 -8.673123 10.217346 -8.534408 -12.637552 89.134621 -27.921810 13.334871 6.509696 52.787529 -3.519574 -7.482011 -19.727005 0.951164 -2.399940 -7.517703 1.582041 6.387982 29.086538 5.365342 4.732478 -20.705816 1.253076 3.112845 
-3.283148 52.826038 14.571671 170.969955 177.585663 -1.421530 25.323591 5.478013 -1.821932 -18.378620 2.806091 -0.994651 -11.707737 -6.207311 -6.279246 22.708002 11.366547 -11.081706 -0.892466 -0.957000 1.218467 -76.001793 -24.321091 -0.671117 -43.914295 6.054155 5.796240 8.524705 12.647240 -55.765030 -4.058817 0.661413 2.306497 78.165398 18.664099 -26.545393 54.628513 -8.618799 10.075243 -8.534408 -12.637552 88.870949 -28.544321 13.583698 5.956769 50.873920 -3.722210 -7.279996 -20.384991 1.569987 -2.107021 -6.782025 1.667741 6.667996 28.651957 5.413783 4.675604 -19.938688 1.324846 3.182168 
-3.353922 52.874428 14.098027 170.903870 177.565338 -2.090538 25.560930 5.341517 -1.582386 -18.456739 2.676934 -0.921760 -11.749797 -5.940768 -6.019627 22.170712 11.000318 -10.674236 -0.892466 -0.957000 1.218467 -75.995407 -23.998384 -1.067596 -43.893177 6.043219 5.789864 8.524705 12.647240 -55.061897 -4.058817 0.661413 2.306497 78.120316 18.558634 -26.638027 54.333805 -8.573855 9.954757 -8.534408 -12.637552 88.743996 -28.986784 13.833418 5.572156 48.731857 -3.919437 -7.079638 -20.980164 2.115960 -1.860964 -6.033865 1.640281 6.842553 28.153570 5.423540 4.613909 -19.684549 1.562139 3.260435 
-3.424697 52.891975 13.643741 170.654587 177.667847 -2.788236 25.631826 5.130498 -1.486049 -18.544706 2.675059 -0.877038 -11.863269 -5.834789 -5.680602 21.683167 10.617488 -10.159060 -0.892466 -0.957000 1.218467 -76.080231 -23.600607 -1.264309 -43.965340 6.068295 5.814388 8.524705 12.647240 -54.339245 -4.058817 0.661413 2.306497 77.830200 18.699129 -26.786898 53.889961 -8.494309 9.763913 -8.534408 -12.637552 88.294785 -29.432446 14.003338 5.321149 46.322479 -4.140983 -6.802129 -21.484297 2.371330 -1.697696 -5.481240 1.441146 7.026659 27.600029 5.466461 4.526172 -19.723179 1.923107 3.419252 
-3.493958 52.961842 13.169189 170.338272 177.782028 -3.438335 25.536098 4.961768 -1.424092 -18.525137 2.645873 -0.856886 -11.938265 -5.744122 -5.441588 21.281509 10.177875 -9.819770 -0.892466 -0.957000 1.218467 -76.284370 -23.158037 -1.665484 -44.221367 6.145381 5.908241 8.524705 12.647240 -53.938854 -4.058817 0.661413 2.306497 77.539604 19.025341 -27.183788 53.342777 -8.400256 9.538928 -8.534408 -12.637552 87.581894 -29.790779 14.128455 4.954150 43.770676 -4.358071 -6.532447 -22.010065 2.411828 -1.618556 -5.055529 1.209316 7.207695 26.997904 5.496258 4.439705 -19.366446 2.540203 3.648341 
-3.579251 53.027771 12.668626 170.237076 177.769257 -4.079551 25.645729 4.948103 -1.231693 -18.485889 2.431015 -0.798761 -12.030555 -5.551462 -5.233144 20.878933 9.759372 -9.525928 -0.892466 -0.957000 1.218467 -76.387360 -22.790197 -1.920942 -44.467812 6.222694 6.001565 8.524705 12.647240 -53.470104 -4.058817 0.661413 2.306497 77.414604 19.295042 -27.742899 52.858414 -8.308230 9.328964 -8.534408 -12.637552 86.956894 -29.915142 14.254030 4.201986 41.145630 -4.572492 -6.228390 -22.350687 2.856274 -1.414316 -4.341352 1.032760 7.451404 26.365036 5.525816 4.350335 -18.915426 3.015377 3.829752 
-3.665754 53.072842 12.174414 170.137497 177.832397 -4.688204 25.723545 4.786129 -1.041788 -18.348940 2.236870 -0.736898 -12.042219 -5.246030 -5.006415 20.216639 9.280576 -9.179830 -0.892466 -0.957000 1.218467 -76.347801 -22.554317 -2.024919 -44.549595 6.246314 6.036721 8.524705 12.647240 -53.069717 -4.058817 0.661413 2.306497 77.294968 19.476492 -28.116034 52.437649 -8.227305 9.161766 -8.534408 -12.637552 86.556503 -30.095139 14.295609 3.290178 38.494751 -4.783226 -5.912971 -22.562979 4.030007 -0.945241 -3.531971 0.838323 7.818059 25.649305 5.560213 4.283857 -18.596678 3.150656 3.872558 
